<svg width="80" height="80" viewBox="0 0 80 80" fill="none" xmlns="http://www.w3.org/2000/svg">
<path d="M6.66669 26.6667V65.0967C6.66669 65.0967 22.07 64.5233 40 73.3333C57.93 64.5233 73.3334 65.0967 73.3334 65.0967V26.6667C73.3334 26.6667 55.1534 26.6667 40 34.9033C24.8467 26.6667 6.66669 26.6667 6.66669 26.6667Z" fill="#2F584E"/>
<path d="M40 26.6667C45.5228 26.6667 50 22.1895 50 16.6667C50 11.1438 45.5228 6.66666 40 6.66666C34.4772 6.66666 30 11.1438 30 16.6667C30 22.1895 34.4772 26.6667 40 26.6667Z" fill="#FF9257"/>
<path d="M37.8947 44.1737C38.3932 42.8777 38.6424 42.2297 39.0022 42.0417C39.3141 41.8788 39.6859 41.8788 39.9978 42.0417C40.3576 42.2297 40.6068 42.8777 41.1053 44.1737L41.8137 46.0157C42.1381 46.859 42.3002 47.2806 42.5524 47.6352C42.7759 47.9495 43.0505 48.2241 43.3648 48.4476C43.7194 48.6998 44.141 48.8619 44.9843 49.1863L46.8263 49.8947C48.1223 50.3932 48.7703 50.6424 48.9583 51.0022C49.1212 51.3141 49.1212 51.6859 48.9583 51.9978C48.7703 52.3576 48.1223 52.6068 46.8263 53.1053L44.9843 53.8137C44.141 54.1381 43.7194 54.3002 43.3648 54.5524C43.0505 54.7759 42.7759 55.0505 42.5524 55.3648C42.3002 55.7194 42.1381 56.141 41.8138 56.9843L41.1053 58.8263C40.6068 60.1223 40.3576 60.7703 39.9978 60.9583C39.6859 61.1212 39.3141 61.1212 39.0022 60.9583C38.6424 60.7703 38.3932 60.1223 37.8947 58.8263L37.1863 56.9843C36.8619 56.141 36.6998 55.7194 36.4476 55.3648C36.2241 55.0505 35.9495 54.7759 35.6352 54.5524C35.2806 54.3002 34.859 54.1381 34.0157 53.8138L32.1737 53.1053C30.8777 52.6068 30.2297 52.3576 30.0417 51.9978C29.8788 51.6859 29.8788 51.3141 30.0417 51.0022C30.2297 50.6424 30.8777 50.3932 32.1737 49.8947L34.0157 49.1863C34.859 48.8619 35.2806 48.6998 35.6352 48.4476C35.9495 48.2241 36.2241 47.9495 36.4476 47.6352C36.6998 47.2806 36.8619 46.859 37.1862 46.0157L37.8947 44.1737Z" fill="white"/>
</svg>
